<mxfile host="app.diagrams.net" modified="2023-04-01T08:10:22.183Z" agent="Mozilla/5.0 (Windows NT 10.0; Win64; x64) AppleWebKit/537.36 (KHTML, like Gecko) Chrome/111.0.0.0 Safari/537.36" version="21.1.2" etag="aHuqyek9uSNJqEScyS03" type="github">
  <diagram name="第 1 页" id="puBO4Hg1i1qRgB_f7C7Q">
    <mxGraphModel>
      <root>
        <mxCell id="0" />
        <mxCell id="1" parent="0" />
      </root>
    </mxGraphModel>
  </diagram>
</mxfile>
